<svg xmlns="http://www.w3.org/2000/svg" version="1.1" xmlns:xlink="http://www.w3.org/1999/xlink" xmlns:svgjs="http://svgjs.dev/svgjs" width="100%" height="100%" viewBox="0 0 1000 600"><rect width="1000" height="600" x="0" y="0" fill="#ffffff"/><g><rect width="333.3333333333333" height="333.3333333333333" rx="13.333333333333334" ry="13.333333333333334" y="77.77777014838344" fill="#FBF8B" transform="matrix(2.2499999313354513,0,0,2.2499999313354517,0,-249.99999084472722)" x="55.55555725097656"/><path d="M229.79913076798329 305.27097867524947L229.79913076798329 305.27097867524947Q230.19678271749868 306.2651085490379 229.3162676864289 306.2651085490379Q228.4073489446794 306.2651085490379 227.8108710204063 306.2651085490379L227.8108710204063 306.2651085490379Q228.4073489446794 307.25923842282646 228.094908127203 307.8557163470995Q227.8108710204063 308.4521942713726 227.2996042281722 308.9634610636067Q226.8167411466178 309.44632414516104 226.3054743543837 310.0428020694342Q225.8226112728293 310.6392799937073 225.8226112728293 311.43458389273803L225.8226112728293 311.43458389273803Q222.61299196602647 311.0369319432226 222.01651404175337 311.5481987354567Q221.42003611748024 312.0594655276909 219.82942831941867 314.4453772247832L219.82942831941867 314.4453772247832Q217.812764861162 314.84302917429864 216.4209830378581 315.6383330733295L216.4209830378581 315.6383330733295Q214.8303752397965 315.43950709857177 214.12028247280472 314.7578180422596Q213.4385934164926 314.0477252752678 211.2231039834783 314.4453772247832L211.2231039834783 314.4453772247832Q211.6207559329937 312.2582915024485 209.433670210659 312.2582915024485L209.433670210659 312.2582915024485Q209.6324961854167 310.838105968465 209.54728505337766 309.64515011991875Q209.433670210659 308.4521942713726 207.8430624125974 307.8557163470995L207.8430624125974 307.8557163470995Q209.0360182611436 306.6627604985533 208.2407143621128 305.1573638325307Q207.445410463082 303.65196716650814 207.64423643783968 302.0613593684466L207.64423643783968 302.0613593684466Q207.64423643783968 301.66370741893115 207.8430624125974 301.15244062669706Q208.0418883873551 300.6695775451427 208.0418883873551 300.0730996208696L208.0418883873551 300.0730996208696Q207.2465844883243 298.45408811212826 207.72944756987872 298.05643616261295Q208.2407143621128 297.65878421309753 208.2407143621128 297.0623062888244L208.2407143621128 297.0623062888244Q209.0360182611436 293.0857867936704 209.0360182611436 289.9897823295863Q209.0360182611436 286.8937778655021 209.0360182611436 284.08181050821463L209.0360182611436 284.08181050821463Q209.0360182611436 283.2865066091839 208.63836631162818 283.0876806344262Q208.2407143621128 282.8888546596685 207.64423643783968 282.49120271015306L207.64423643783968 282.49120271015306Q207.64423643783968 281.4970728363646 208.3259254941518 281.2982468616069Q209.0360182611436 281.0994208868492 209.23484423590128 280.30411698781836L209.23484423590128 280.30411698781836Q209.433670210659 278.88393145383475 208.9224034184249 277.6909756052886Q208.43954033687046 276.49801975674245 208.63836631162818 275.1062379334386L208.63836631162818 275.1062379334386Q209.23484423590128 272.2942705761511 208.7235774436672 271.21492957032353Q208.2407143621128 270.1071848538164 208.43954033687046 269.11305498002787L208.43954033687046 269.11305498002787Q208.43954033687046 268.31775108099714 208.7235774436672 267.721273156724Q209.0360182611436 267.1247952324509 209.0360182611436 266.4999135974981L209.0360182611436 266.4999135974981Q209.0360182611436 265.7046096984674 208.83719228638589 265.10813177419425Q208.63836631162818 264.5116538499211 208.63836631162818 263.9151759256481L208.63836631162818 263.9151759256481Q208.63836631162818 262.92104605185955 208.83719228638589 261.9269161780711Q209.0360182611436 260.93278630428256 209.0360182611436 259.91025271981437L209.0360182611436 259.91025271981437Q209.0360182611436 258.9161228460259 208.83719228638589 258.03560781495617Q208.63836631162818 257.12668907320665 208.0418883873551 256.5302111489335L208.0418883873551 256.5302111489335Q209.0360182611436 254.74077737611427 208.63836631162818 251.33233209455372Q208.2407143621128 247.95229052367281 208.63836631162818 245.73680109065847L208.63836631162818 245.73680109065847Q209.23484423590128 243.35088939356606 208.7235774436672 242.754411469293Q208.2407143621128 242.15793354501992 208.43954033687046 241.36262964598907L208.43954033687046 241.36262964598907Q208.43954033687046 240.5389220362786 208.7235774436672 239.94244411200552Q209.0360182611436 239.34596618773244 209.0360182611436 238.5506622887016L209.0360182611436 238.5506622887016Q209.0360182611436 237.55653241491316 208.5247514689095 236.76122851588232Q208.0418883873551 235.96592461685154 208.2407143621128 234.97179474306304L208.2407143621128 234.97179474306304Q209.0360182611436 230.7680455624717 208.1270995193941 228.580959840137Q207.2465844883243 226.36547040712267 208.2407143621128 223.97955871003026L208.2407143621128 223.97955871003026Q208.2407143621128 223.18425481099948 207.8430624125974 222.78660286148406Q207.445410463082 222.3889509119687 207.04775851356658 221.76406927701592L207.04775851356658 221.76406927701592Q207.2465844883243 219.77580952943893 206.7353176960902 219.29294644788453Q206.25245461453582 218.78167965565044 205.82639895434073 217.1910718575888L205.82639895434073 217.1910718575888Q205.22992103006766 214.18027852554368 205.74118782230173 211.1978889041782Q206.25245461453582 208.18709557213307 205.42874700482534 205.4035319255253L205.42874700482534 205.4035319255253Q205.03109505530995 204.40940205173675 204.43461713103684 203.81292412746367Q203.83813920676374 203.2164462031906 204.23579115627913 201.99508664396475L204.23579115627913 201.99508664396475Q203.24166128249064 202.39273859348012 202.44635738345985 203.10283136047192Q201.65105348442904 203.81292412746367 200.65692361064055 204.2105760769791L200.65692361064055 204.2105760769791Q200.65692361064055 205.80118387504066 200.14565681840648 206.71010261679012Q199.66279373685208 207.59061764786 200.06044568636747 209.40845513135892L200.06044568636747 209.40845513135892Q199.43556405141467 210.60141097990513 198.0437822281108 211.3967148789359L198.0437822281108 211.3967148789359L196.8508263795646 215.3732343740899Q196.6520004048069 215.79929003428495 196.14073361257283 215.99811600904266Q195.65787053101843 216.19694198380037 195.260218581503 216.59459393331574L195.260218581503 216.59459393331574L194.26608870771452 219.17933160516586Q194.0672627329568 219.77580952943893 194.15247386499584 220.28707632167303Q194.26608870771452 220.76993940322743 194.26608870771452 221.16759135274285L194.26608870771452 221.16759135274285Q194.26608870771452 221.76406927701592 193.75482191548045 222.78660286148406Q193.27195883392605 223.7807327352726 192.44825122421557 224.86007374110008Q191.65294732518478 225.96781845760725 190.97125826887265 226.96194833139575Q190.2611655018809 227.95607820518424 190.06233952712319 228.35373015469966L190.06233952712319 228.35373015469966Q188.869383678577 230.3703936129563 188.27290575430388 230.65443071975304Q187.6764278300308 230.96687153722942 187.4776018552731 231.3645234867448L187.4776018552731 231.3645234867448Q187.07994990575773 231.7621754362602 187.07994990575773 232.47226820325196Q187.07994990575773 233.15395725956412 186.88112393100002 233.5516092090795L186.88112393100002 233.5516092090795Q186.4550682708049 234.54573908286798 185.37572726497743 236.24996172364828Q184.26798254847023 237.95418436442853 183.27385267468173 238.35183631394395L183.27385267468173 238.35183631394395Q183.27385267468173 239.14714021297473 183.07502669992405 240.0560589547242Q182.87620072516634 240.936573985794 181.68324487662017 240.936573985794L181.68324487662017 240.936573985794Q182.08089682613553 243.15206341880835 180.88794097758938 244.54384524211227Q179.6665814183635 245.93562706541618 180.49028902807396 247.32740888872004L180.49028902807396 247.32740888872004Q179.46775544360582 247.32740888872004 178.98489236205137 247.83867568095414Q178.4736255698173 248.34994247318824 178.0759736203019 248.9464203974613Q177.67832167078652 249.54289832173438 177.28066972127112 250.13937624600752Q176.8830177717557 250.7358541702806 176.08771387272492 250.9346801450383L176.08771387272492 250.9346801450383Q176.48536582224034 252.1276359935845 176.17292500476393 253.6330326596071Q175.8888878979672 255.1384293256297 174.29828009990564 255.53608127514505L174.29828009990564 255.53608127514505Q174.09945412514793 256.5302111489335 173.87222443971055 257.12668907320665Q173.67339846495287 257.7231669974798 174.09945412514793 258.7172968712682L174.09945412514793 258.7172968712682Q172.67926859116437 259.11494882078364 172.67926859116437 260.6203454868062Q172.67926859116437 262.1257421528288 171.0886607931028 263.31869800137497L171.0886607931028 263.31869800137497Q171.48631274261817 265.30695774895196 171.00344966106377 266.1022616479827Q170.49218286882967 266.92596925769317 170.29335689407196 268.51657705575485L170.29335689407196 268.51657705575485Q169.10040104552579 268.91422900527016 167.3961784047455 271.41375554508124Q165.69195576396527 273.91328208489233 165.29430381444985 275.1062379334386L165.29430381444985 275.1062379334386Q163.50487004163057 275.9015418324693 163.50487004163057 276.49801975674245Q163.50487004163057 277.0944976810156 163.30604406687286 277.6909756052886L163.30604406687286 277.6909756052886Q162.90839211735744 278.088627554804 162.51074016784204 278.48627950431944Q162.11308821832665 278.88393145383475 161.7154362688113 279.28158340335017L161.7154362688113 279.28158340335017Q161.09055463385846 280.7017689373338 161.00534350181948 282.3775878674344Q160.8917286591008 284.08181050821463 160.8917286591008 285.4735923315186L160.8917286591008 285.4735923315186Q160.09642476007002 285.4735923315186 159.81238765327328 286.0984739664714Q159.4999468357969 286.6949518907444 158.90346891152382 287.0926038402598L158.90346891152382 287.0926038402598Q158.90346891152382 288.08673371404836 158.81825777948478 289.67734151210993Q158.7046429367661 291.2679493101715 157.7105130629776 291.86442723444463L157.7105130629776 291.86442723444463Q158.50581696200842 293.48343874318584 157.5116870882199 295.5853133334815Q156.5175572144314 297.65878421309753 156.91520916394683 299.27779572183874L156.91520916394683 299.27779572183874Q155.32460136588523 300.2719255956273 153.81920469986267 301.7489185509702Q152.31380803384008 303.2543152169927 150.6095853930598 304.2484450907813Q148.9337664629592 305.27097867524947 147.11592897946025 305.4698046500072Q145.32649520664094 305.6686306247649 143.33823545906392 304.04961911602356L143.33823545906392 304.04961911602356Q142.74175753479085 303.85079314126585 142.34410558527549 304.16323395874224Q141.91804992508037 304.447271065539 141.3215720008073 304.447271065539L141.3215720008073 304.447271065539Q140.3274421270188 304.447271065539 139.2481011211913 304.04961911602356Q138.1403564046841 303.65196716650814 137.1462265308956 304.04961911602356L137.1462265308956 304.04961911602356Q136.94740055613792 302.0613593684466 135.95327068234943 300.35713672766633Q134.93073709788126 298.65291408688597 135.12956307263897 296.4658283645514L135.12956307263897 296.4658283645514Q135.12956307263897 295.67052446552054 135.64082986487307 295.0740465412474Q136.15209665710714 294.4775686169744 136.15209665710714 293.68226471794355L136.15209665710714 293.68226471794355Q136.35092263186482 292.06325320920223 135.83965583963072 290.58626025385934Q135.32838904739666 289.0808635878368 134.13543319885048 288.08673371404836L134.13543319885048 288.08673371404836Q133.93660722409277 286.4961259159867 133.73778124933506 284.67828843248776Q133.53895527457738 282.8888546596685 132.1471734512735 281.89472478587993L132.1471734512735 281.89472478587993Q132.34599942603117 279.4804093781079 131.35186955224268 277.6909756052886Q130.35773967845418 275.9015418324693 128.73872816971294 274.31093403440775L128.73872816971294 274.31093403440775Q128.73872816971294 273.91328208489233 128.25586508815852 272.4930965509087Q127.74459829592443 271.10131472760486 127.06290923961232 269.5959180615823Q126.35281647262055 268.11892510623943 125.64272370562875 266.8123544149745Q124.96103464931664 265.50578372370967 124.76220867455895 265.10813177419425L124.76220867455895 265.10813177419425Q124.36455672504354 264.3128278751635 124.05211590756717 263.31869800137497Q123.76807880077047 262.32456812758653 122.5467192415446 262.5233941023441L122.5467192415446 262.5233941023441Q122.7455452163023 259.71142674505677 121.15493741824069 259.2285636635023Q119.56432962017911 258.7172968712682 118.57019974639061 257.32551504796436L118.57019974639061 257.32551504796436Q117.37724389784442 255.73490724990276 116.58193999881362 253.83185863436475Q115.75823238910316 251.9288100188268 114.16762459104157 250.33820222076523L114.16762459104157 250.33820222076523Q113.96879861628386 248.54876844794595 112.86105389977669 247.52623486347775Q111.78171289394919 246.53210498968926 110.1911050958876 245.73680109065847L110.1911050958876 245.73680109065847Q110.58875704540299 244.1461932925969 109.96387541045021 243.6349265003628Q109.36739748617713 243.15206341880835 109.36739748617713 242.15793354501992L109.36739748617713 242.15793354501992Q108.77091956190404 241.13539996055172 107.69157855607652 240.4537109042396Q106.58383383956934 239.74361813724786 105.58970396578084 239.14714021297473L105.58970396578084 239.14714021297473Q105.19205201626545 236.76122851588232 103.3742145327665 235.05700587510208Q101.5847807599472 233.35278323432178 100.78947686091641 230.96687153722942L100.78947686091641 230.96687153722942Q100.5906508861587 230.569219587714 99.08525422013614 229.26264889644912Q97.60826126479321 227.95607820518424 97.18220560459815 227.95607820518424L97.18220560459815 227.95607820518424Q97.60826126479321 225.96781845760725 96.78455365508276 225.17251455857647Q95.98924975605195 224.37721065954568 95.98924975605195 222.78660286148406L95.98924975605195 222.78660286148406Q95.19394585702116 222.19012493721098 94.90990875022445 221.48003217021923Q94.59746793274807 220.76993940322743 94.39864195799038 220.08825034691532Q94.19981598323267 219.3781575799235 93.6885491909986 218.78167965565044Q93.20568610944417 218.18520173137736 92.01273026089798 217.98637575661965L92.01273026089798 217.98637575661965Q91.61507831138259 216.39576795855803 91.3026374939062 215.17440839933218Q91.0186003871095 213.98145255078603 88.80311095409513 213.5838006012706L88.80311095409513 213.5838006012706Q88.80311095409513 212.3908447527244 88.32024787254072 211.68075198573266Q87.80898108030664 210.9990629294205 87.09888831331486 210.40258500514742Q86.41719925700275 209.80610708087434 85.82072133272965 209.09601431388253Q85.22424340845654 208.38592154689078 85.22424340845654 207.3917916731023L85.22424340845654 207.3917916731023Q85.82072133272965 210.004933055632 85.22424340845654 211.28310003621723Q84.62776548418346 212.58967072748212 84.62776548418346 213.78262657602832L84.62776548418346 213.78262657602832Q84.62776548418346 214.77675644981682 85.30945454049557 214.8903712925355Q86.01954730748734 214.97558242457447 86.01954730748734 215.99811600904266L86.01954730748734 215.99811600904266Q86.01954730748734 216.99224588283116 85.42306938321425 217.98637575661965Q84.82659145894115 218.98050563040815 84.82659145894115 219.97463550419664L84.82659145894115 219.97463550419664Q85.22424340845654 222.78660286148406 84.71297661622248 225.5701665080919Q84.2017098239884 228.35373015469966 85.22424340845654 229.17743776441014L85.22424340845654 229.17743776441014Q85.22424340845654 230.17156763819864 84.62776548418346 230.569219587714Q84.00288384923068 230.96687153722942 83.60523189971529 231.7621754362602L83.60523189971529 231.7621754362602Q84.00288384923068 232.557479335291 83.91767271719168 233.2675721022828Q83.80405787447299 233.9492611585949 84.00288384923068 234.7445650576257L84.00288384923068 234.7445650576257Q84.2017098239884 235.56827266733617 84.51415064146477 236.16475059160925Q84.82659145894115 236.76122851588232 84.82659145894115 237.35770644015545L84.82659145894115 237.35770644015545Q84.82659145894115 239.54479216249015 84.2017098239884 242.35675951977757Q83.60523189971529 245.14032316638534 85.22424340845654 246.92975693920468L85.22424340845654 246.92975693920468Q84.40053579874609 248.15111649843053 85.02541743369885 249.34407234697673Q85.62189535797195 250.53702819552294 85.62189535797195 251.72998404406908L85.62189535797195 251.72998404406908Q85.42306938321425 252.32646196834222 85.22424340845654 252.9229398926153Q85.02541743369885 253.51941781688836 85.02541743369885 254.34312542659885L85.02541743369885 254.34312542659885Q84.82659145894115 255.93373322466041 84.91180259098017 257.7231669974798Q85.02541743369885 259.51260077029906 84.82659145894115 261.13161227904027L84.82659145894115 261.13161227904027Q84.82659145894115 262.1257421528288 84.62776548418346 263.0062571838986Q84.40053579874609 263.9151759256481 84.40053579874609 264.90930579943654L84.40053579874609 264.90930579943654Q84.40053579874609 265.9034356732251 85.22424340845654 266.1022616479827Q86.01954730748734 266.3010876227405 85.62189535797195 267.3236212072086L85.62189535797195 267.3236212072086Q83.0087539754422 269.9083588790587 83.91767271719168 271.81140749459666Q84.82659145894115 273.7144561101346 83.80405787447299 275.5038898829539L83.80405787447299 275.5038898829539L82.8099280006845 277.6909756052886Q83.80405787447299 279.90646503830294 83.4064059249576 281.97993591791897Q83.0087539754422 284.08181050821463 82.8099280006845 286.29729994122897L82.8099280006845 286.29729994122897Q82.8099280006845 287.49025578977523 83.12236881816088 288.6832116383214Q83.4064059249576 289.87616748686764 83.2075799501999 291.0691233354138L83.2075799501999 291.0691233354138Q82.8099280006845 293.68226471794355 83.32119479291858 294.5627797490133Q83.80405787447299 295.47169849076283 83.80405787447299 296.4658283645514L83.80405787447299 296.4658283645514Q83.60523189971529 297.65878421309753 83.0087539754422 299.27779572183874Q82.4122760511691 300.8684035199004 83.4064059249576 301.86253339368886L83.4064059249576 301.86253339368886Q82.4122760511691 303.055489242235 82.01462410165371 304.56088590825766Q81.6169721521383 306.0662825742802 80.8216682531075 307.45806439758405L80.8216682531075 307.45806439758405Q82.01462410165371 309.24749817040345 80.90687938514652 310.838105968465Q79.82753837931901 312.4571174772062 78.63458253077282 313.6500733257525L78.63458253077282 313.6500733257525Q76.41909309775846 313.6500733257525 75.62378919872768 313.5364584830337Q74.82848529969687 313.4512473509948 74.62965932493917 316.2348109976025L74.62965932493917 316.2348109976025Q73.63552945115067 316.4336369723602 72.52778473464349 317.143729739352Q71.42004001813632 317.8538225063438 70.22708416959013 317.8538225063438L70.22708416959013 317.8538225063438Q68.63647637152853 317.8538225063438 67.72755762977906 316.4336369723602Q66.84704259870925 315.04185514905635 64.63155316569488 315.24068112381406L64.63155316569488 315.24068112381406Q64.83037914045259 314.6442031995409 64.74516800841357 314.4453772247832Q64.63155316569488 314.2465512500255 64.23390121617949 314.13293640730683Q63.83624926666409 314.0477252752678 63.43859731714869 313.6500733257525Q63.0409453676333 313.25242137623707 63.0409453676333 312.0594655276909L63.0409453676333 312.0594655276909Q61.05268562005631 308.6510202461303 61.933200651126114 307.3444495548654Q62.842119392875595 306.0662825742802 62.842119392875595 304.6460970402966L62.842119392875595 304.6460970402966Q62.842119392875595 303.85079314126585 62.6432934181179 303.1691040849537Q62.4444674433602 302.459011317962 63.43859731714869 301.86253339368886L63.43859731714869 301.86253339368886Q63.83624926666409 300.8684035199004 63.55221215986738 300.35713672766633Q63.239771342390995 299.8742736461119 63.239771342390995 298.88014377232344L63.239771342390995 298.88014377232344Q64.63155316569488 296.8634803140667 64.43272719093719 295.98296528299693Q64.23390121617949 295.0740465412474 64.23390121617949 294.4775686169744L64.23390121617949 294.4775686169744Q64.83037914045259 292.8869608189128 64.43272719093719 292.4893088693974Q64.0350752414218 292.06325320920223 64.0350752414218 291.4667752849292L64.0350752414218 291.4667752849292Q64.0350752414218 288.6832116383214 65.22803108996798 285.8712442810339Q66.44939064919384 283.0876806344262 66.44939064919384 280.30411698781836L66.44939064919384 280.30411698781836Q66.44939064919384 279.28158340335017 66.13694983171746 278.68510547907715Q65.85291272492076 278.088627554804 65.65408675016306 277.2933236557732L65.65408675016306 277.2933236557732Q65.22803108996798 274.7085859839232 65.54047190744437 273.99849321693137Q65.85291272492076 273.3168041606192 65.85291272492076 272.4930965509087L65.85291272492076 272.4930965509087Q66.05173869967845 270.90248875284715 66.05173869967845 269.3970920868246Q66.05173869967845 267.9200991314817 66.05173869967845 266.3010876227405L66.05173869967845 266.3010876227405Q66.44939064919384 261.13161227904027 66.73342775599056 256.41659630621484Q67.04586857346695 251.72998404406908 65.22803108996798 246.53210498968926L65.22803108996798 246.53210498968926Q66.25056467443615 245.53797511590076 66.53460178123287 245.33914914114305Q66.84704259870925 245.14032316638534 67.04586857346695 243.74854134308148L67.04586857346695 243.74854134308148Q67.04586857346695 242.15793354501992 66.64821662395155 240.34009606152094Q66.25056467443615 238.5506622887016 67.24469454822464 236.96005449064003L67.24469454822464 236.96005449064003Q67.24469454822464 235.96592461685154 66.73342775599056 235.36944669257846Q66.25056467443615 234.7445650576257 66.05173869967845 233.9492611585949L66.05173869967845 233.9492611585949Q66.25056467443615 231.5633494615025 67.24469454822464 228.77978581489472L67.24469454822464 228.77978581489472Q66.84704259870925 227.75725223042653 66.73342775599056 226.87673719935677Q66.64821662395155 225.96781845760725 65.85291272492076 225.37134053333418L65.85291272492076 225.37134053333418Q67.24469454822464 218.58285368089273 67.64234649774005 211.3967148789359L67.64234649774005 211.3967148789359Q67.84117247249773 207.98826959737536 67.64234649774005 204.49461318377578Q67.44352052298234 201.00095677017626 67.84117247249773 197.62091519929535L67.84117247249773 197.62091519929535Q67.84117247249773 197.02443727502228 68.32403555405216 196.0019036905541Q68.83530234628623 195.0077738167656 69.43178027055933 194.61012186725023L69.43178027055933 194.61012186725023Q68.23882442201314 193.2183400439463 68.52286152880986 192.5082472769545Q68.83530234628623 191.8265582206424 68.63647637152853 190.23595042258083L68.63647637152853 190.23595042258083Q68.83530234628623 188.2192869643242 68.52286152880986 187.62280904005107Q68.23882442201314 187.026331115778 68.03999844725544 186.2310272167472Q67.84117247249773 185.43572331771637 67.92638360453675 184.5268045759669Q68.03999844725544 183.61788583421745 68.63647637152853 182.42492998567127L68.63647637152853 182.42492998567127Q68.03999844725544 180.43667023809428 67.92638360453675 179.64136633906344Q67.84117247249773 178.84606244003265 68.12520957929445 178.53362162255627Q68.43765039677083 178.24958451575958 68.83530234628623 177.9371436982832Q69.23295429580163 177.6531065914865 69.43178027055933 176.4317470322606L69.43178027055933 176.4317470322606Q71.22121404337862 177.4542806167288 72.9254366841589 176.54536187497928Q74.62965932493917 175.63644313322982 76.61791907251616 175.63644313322982L76.61791907251616 175.63644313322982Q78.43575655601512 175.63644313322982 80.0263643540767 176.2329210575029Q81.6169721521383 176.82939898177602 83.60523189971529 176.4317470322606L83.60523189971529 176.4317470322606Q83.80405787447299 177.02822495653368 85.70710649001097 178.44841049051723Q87.61015510554894 179.84019231382115 88.20663302982203 180.23784426333657L88.20663302982203 180.23784426333657Q88.60428497933744 182.42492998567127 90.30850762011771 184.44159344392787Q92.01273026089798 186.42985319150486 93.00686013468648 188.0204609895665L93.00686013468648 188.0204609895665Q93.40451208420188 188.61693891383956 93.88737516575628 188.81576488859727Q94.39864195799038 189.01459086335498 94.79629390750577 189.41224281287035L94.79629390750577 189.41224281287035Q94.79629390750577 190.63360237209625 94.90990875022445 191.42890627112703Q94.99511988226347 192.22421017015782 95.59159780653656 193.2183400439463L95.59159780653656 193.2183400439463Q96.78455365508276 195.0077738167656 97.18220560459815 195.0077738167656Q97.60826126479321 195.0077738167656 98.00591321430862 195.405425766281L98.00591321430862 195.405425766281Q98.40356516382403 196.0019036905541 98.28995032110535 196.3995556400695Q98.20473918906632 196.82561130026457 99.19886906285481 197.62091519929535L99.19886906285481 197.62091519929535Q100.1929989366433 198.41621909832614 101.30074365315049 200.12044173910644Q102.38008465897799 201.79626066920704 103.17538855800879 202.79039054299554L103.17538855800879 202.79039054299554Q103.99909616771926 203.81292412746367 104.28313327451596 203.8981352595027Q104.59557409199236 204.01175010222138 104.59557409199236 205.4035319255253L104.59557409199236 205.4035319255253Q104.59557409199236 206.19883582455608 105.27726314830446 206.39766179931374Q105.98735591529623 206.59648777407145 106.38500786481164 207.19296569834458L106.38500786481164 207.19296569834458Q106.78265981432705 208.58474752164844 107.49275258131883 208.98239947116386Q108.17444163763093 209.40845513135892 108.57209358714633 210.2037590303897L108.57209358714633 210.2037590303897Q108.96974553666173 210.60141097990513 108.77091956190404 211.28310003621723Q108.57209358714633 211.99319280320898 108.96974553666173 212.3908447527244L108.96974553666173 212.3908447527244Q110.38993107064528 213.5838006012706 110.1911050958876 213.78262657602832Q109.96387541045021 213.98145255078603 109.96387541045021 214.3791045003014L109.96387541045021 214.3791045003014Q109.76504943569253 214.97558242457447 110.8727941521997 215.99811600904266Q111.98053886870689 216.99224588283116 112.57701679297998 217.1910718575888L112.57701679297998 217.1910718575888Q112.77584276773767 217.78754978186194 112.86105389977669 218.46923883817405Q112.97466874249537 219.17933160516586 113.37232069201077 219.77580952943893L113.37232069201077 219.77580952943893Q114.16762459104157 220.76993940322743 114.48006540851796 220.28707632167303Q114.76410251531466 219.77580952943893 114.76410251531466 221.96289525177363L114.76410251531466 221.96289525177363Q114.76410251531466 222.19012493721098 115.47419528230644 222.98542883624177Q116.15588433861856 223.7807327352726 116.97959194832902 224.7748626090611Q117.77489584735983 225.76899248284954 118.57019974639061 226.56429638188038Q119.3655036454214 227.35960028091117 119.56432962017911 227.55842625566888L119.56432962017911 227.55842625566888Q119.3655036454214 229.77391568868322 121.0697262862017 230.7680455624717Q122.7455452163023 231.7621754362602 124.16573075028586 233.15395725956412L124.16573075028586 233.15395725956412Q124.96103464931664 233.9492611585949 125.24507175611336 234.85817990034437Q125.55751257358975 235.76709864209388 126.75046842213594 236.16475059160925L126.75046842213594 236.16475059160925Q128.1422502454398 239.94244411200552 128.73872816971294 243.15206341880835L128.73872816971294 243.15206341880835Q130.5565656532119 244.34501926735456 131.55069552700039 246.24806788289257Q132.54482540078885 248.15111649843053 134.73191112312355 249.14524637221902L134.73191112312355 249.14524637221902Q134.53308514836584 250.53702819552294 135.44200389011536 251.84359888678776Q136.35092263186482 253.121765867373 135.32838904739666 254.34312542659885L135.32838904739666 254.34312542659885Q135.75444470759174 255.33725530038734 136.63495973866154 255.42246643242638Q137.54387848041102 255.53608127514505 138.1403564046841 256.1325591994181L138.1403564046841 256.1325591994181Q138.53800835419952 256.5302111489335 138.9356603037149 257.43912989068303Q139.3333122532303 258.3196449217528 139.9297901775034 259.11494882078364L139.9297901775034 259.11494882078364Q140.5262681017765 259.71142674505677 141.7192239503227 261.330438253798L141.7192239503227 261.330438253798Q142.5429315600332 262.32456812758653 142.82696866682986 263.63113881885135Q143.13940948430627 264.90930579943654 144.33236533285245 265.9034356732251L144.33236533285245 265.9034356732251Q143.73588740857934 267.1247952324509 144.21875049013374 268.20413623827847Q144.73001728236784 269.3118809547856 145.52532118139862 270.30601082857413L145.52532118139862 270.30601082857413Q146.91710300470254 270.70366277808955 148.5361145134438 268.8006141625515Q150.12672231150538 266.92596925769317 150.12672231150538 265.50578372370967L150.12672231150538 265.50578372370967Q152.31380803384008 265.10813177419425 153.10911193287086 263.403909133414Q153.90441583190167 261.7280902033134 154.10324180665938 259.51260077029906L154.10324180665938 259.51260077029906Q158.10816501249303 256.5302111489335 158.3069909872507 252.52528794309993L158.3069909872507 252.52528794309993Q160.6929026843431 248.34994247318824 162.11308821832665 245.14032316638534Q163.50487004163057 241.9591075702622 165.69195576396527 239.14714021297473L165.69195576396527 239.14714021297473Q165.29430381444985 237.55653241491316 166.20322255619934 236.96005449064003Q167.08373758726913 236.36357656636696 166.88491161251144 234.7445650576257L166.88491161251144 234.7445650576257Q168.9015750707681 234.34691310811027 169.49805299504118 232.7563053100487Q170.09453091931428 231.16569751198713 171.68513871737588 230.569219587714L171.68513871737588 230.569219587714Q171.28748676786046 229.5750897139255 171.79875356009455 228.66617097217605Q172.28161664164898 227.75725223042653 172.87809456592208 226.96194833139575L172.87809456592208 226.96194833139575L173.07692054067977 224.97368858381876Q172.67926859116437 223.7807327352726 173.67339846495287 223.97955871003026Q174.69593204942106 224.17838468478797 175.09358399893642 223.5819067605149L175.09358399893642 223.5819067605149Q176.48536582224034 221.76406927701592 176.96822890379474 219.57698355468122Q177.4794956960288 217.38989783234652 177.67832167078652 215.17440839933218L177.67832167078652 215.17440839933218Q177.8771476455442 214.18027852554368 178.3884144377783 214.0950673935047Q178.8712775193327 213.98145255078603 179.2689294688481 213.1861486517552L179.2689294688481 213.1861486517552Q180.0642333678789 210.9990629294205 180.97315210962836 209.18122544592157Q181.88207085137785 207.3917916731023 183.47267864943944 205.80118387504066L183.47267864943944 205.80118387504066Q183.87033059895484 204.80705400125217 183.47267864943944 204.40940205173675Q183.07502669992405 204.01175010222138 183.07502669992405 203.2164462031906L183.07502669992405 203.2164462031906Q183.27385267468173 202.39273859348012 183.87033059895484 201.99508664396475Q184.46680852322794 201.59743469444933 183.87033059895484 200.20565287114547L183.87033059895484 200.20565287114547Q184.86446047274336 198.81387104784156 185.9722051892505 197.81974117405306Q187.07994990575773 196.82561130026457 187.4776018552731 195.0077738167656L187.4776018552731 195.0077738167656Q189.06820965333466 194.61012186725023 189.3522467601314 193.2183400439463Q189.66468757760776 191.8265582206424 190.85764342615397 191.23008029636932L190.85764342615397 191.23008029636932Q190.6588174513963 190.00872073714348 190.77243229411496 189.32703168083137Q190.85764342615397 188.61693891383956 191.05646940091168 187.62280904005107L191.05646940091168 187.62280904005107Q192.64707719897325 186.0322012419895 192.44825122421557 185.3221084749977Q192.2494252494579 184.64041941868558 192.64707719897325 183.8451155196548L192.64707719897325 183.8451155196548Q193.66961078344144 183.22023388470205 194.26608870771452 182.53854482838994Q194.86256663198762 181.82845206139814 196.05552248053382 181.62962608664043L196.05552248053382 181.62962608664043Q196.2543484552915 180.63549621285193 196.05552248053382 180.32305539537555Q195.8566965057761 180.03901828857886 196.2543484552915 179.04488841479036L196.2543484552915 179.04488841479036Q197.8449562533531 178.64723646527494 198.55504902034488 177.53949174876777Q199.236738076657 176.4317470322606 201.25340153491365 176.4317470322606L201.25340153491365 176.4317470322606Q201.65105348442904 176.03409508274524 201.73626461646808 175.2387911837144Q201.84987945918675 174.4434872846836 201.84987945918675 173.84700936041054L201.84987945918675 173.84700936041054Q202.84400933297525 173.44935741089512 203.75292807472474 173.44935741089512Q204.63344310579456 173.44935741089512 205.62757297958302 173.44935741089512L205.62757297958302 173.44935741089512Q208.0418883873551 173.0517054613797 210.14376297765077 174.04583533516825Q212.21723385726676 175.03996520895674 215.0292012145542 175.03996520895674L215.0292012145542 175.03996520895674Q215.22802718931192 176.6305730070183 215.73929398154598 177.85193256624416Q216.22215706310044 179.04488841479036 216.6198090126158 180.23784426333657L216.6198090126158 180.23784426333657Q217.41511291164662 183.22023388470205 217.61393888640433 185.038071368201Q217.812764861162 186.82750514102028 220.02825429417635 189.41224281287035L220.02825429417635 189.41224281287035L219.82942831941867 191.62773224588474Q220.42590624369177 192.22421017015782 220.51111737573075 193.0195140691886Q220.62473221844945 193.81481796821944 221.61886209223795 194.2124699177348L221.61886209223795 194.2124699177348Q220.62473221844945 195.80307771579638 221.30642127476156 197.22326324977993Q222.01651404175337 198.61504507308385 222.41416599126876 200.20565287114547L222.41416599126876 200.20565287114547L221.22121014272255 201.99508664396475Q221.61886209223795 203.0176202284329 221.70407322427698 204.40940205173675Q221.81768806699566 205.80118387504066 223.01064391554183 206.19883582455608L223.01064391554183 206.19883582455608Q221.61886209223795 207.78944362261765 222.41416599126876 209.09601431388253Q223.20946989029954 210.40258500514742 223.20946989029954 211.99319280320898L223.20946989029954 211.99319280320898Q223.01064391554183 212.3908447527244 222.81181794078415 212.9021115449585Q222.61299196602647 213.3849746265129 222.61299196602647 213.98145255078603L222.61299196602647 213.98145255078603Q222.61299196602647 214.3791045003014 223.01064391554183 215.3732343740899Q223.40829586505726 216.39576795855803 223.40829586505726 217.38989783234652L223.40829586505726 217.38989783234652Q224.00477378933036 221.16759135274285 224.11838863204903 223.5819067605149Q224.20359976408807 225.96781845760725 224.20359976408807 228.35373015469966L224.20359976408807 228.35373015469966Q224.20359976408807 229.3762637391678 224.8000776883611 229.77391568868322Q225.42495932331389 230.17156763819864 226.021437247587 230.569219587714L226.021437247587 230.569219587714Q226.2202632223447 231.16569751198713 225.7089964301106 231.44973461878382Q225.22613334855623 231.7621754362602 225.42495932331389 232.7563053100487L225.42495932331389 232.7563053100487Q225.8226112728293 233.15395725956412 225.9078224048683 233.7504351838372Q226.021437247587 234.34691310811027 226.8167411466178 234.34691310811027L226.8167411466178 234.34691310811027Q225.8226112728293 237.75535838967087 226.6179151718601 240.65253687899732Q227.41321907089088 243.54971536832377 227.21439309613316 246.53210498968926L227.21439309613316 246.53210498968926Q227.0155671213755 247.12858291396233 226.6179151718601 247.44102373143872Q226.2202632223447 247.7534645489151 226.021437247587 248.34994247318824L226.021437247587 248.34994247318824Q226.021437247587 248.9464203974613 226.2202632223447 249.4292834790157Q226.41908919710238 249.9405502712498 226.41908919710238 250.33820222076523L226.41908919710238 250.33820222076523Q226.41908919710238 250.9346801450383 226.10664837962602 251.4459469372724Q225.8226112728293 251.9288100188268 225.8226112728293 252.32646196834222L225.8226112728293 252.32646196834222Q225.8226112728293 253.3205918421307 226.8167411466178 253.71824379164607Q227.8108710204063 254.14429945184114 227.61204504564859 254.74077737611427L227.61204504564859 254.74077737611427Q227.61204504564859 255.1384293256297 226.8167411466178 256.1325591994181Q226.021437247587 257.12668907320665 227.61204504564859 257.32551504796436L227.61204504564859 257.32551504796436Q226.6179151718601 257.9219929722374 226.9019522786568 259.11494882078364Q227.21439309613316 260.3079046693298 226.41908919710238 260.73396032952485L226.41908919710238 260.73396032952485Q227.8108710204063 265.10813177419425 226.021437247587 268.51657705575485L226.021437247587 268.51657705575485Q226.41908919710238 269.5107069295433 226.7031263038991 270.50483680333184Q227.0155671213755 271.4989666771203 228.2085229699217 271.4989666771203L228.2085229699217 271.4989666771203Q227.61204504564859 272.2942705761511 227.0155671213755 272.89074850042414Q226.41908919710238 273.5156301353769 225.8226112728293 274.31093403440775L225.8226112728293 274.31093403440775Q225.42495932331389 275.3050639081962 226.2202632223447 275.3902750402352Q227.0155671213755 275.5038898829539 227.0155671213755 276.29919378198474L227.0155671213755 276.29919378198474Q227.0155671213755 278.48627950431944 226.7031263038991 278.7987203217958Q226.41908919710238 279.0827574285926 226.41908919710238 279.4804093781079L226.41908919710238 279.4804093781079Q226.41908919710238 280.30411698781836 226.7031263038991 281.0994208868492Q227.0155671213755 281.89472478587993 227.21439309613316 282.5764138421921Q227.41321907089088 283.2865066091839 227.21439309613316 284.08181050821463Q227.0155671213755 284.8771144072455 226.021437247587 285.4735923315186L226.021437247587 285.4735923315186Q225.8226112728293 286.6949518907444 226.41908919710238 287.774292896572Q227.0155671213755 288.8820376130791 226.8167411466178 290.27381943638295L226.8167411466178 290.27381943638295Q226.8167411466178 290.8702973606561 226.7031263038991 291.5803901276479Q226.6179151718601 292.26207918395994 226.6179151718601 292.8869608189128L226.6179151718601 292.8869608189128Q226.6179151718601 293.28461276842813 226.50430032914142 294.4775686169744Q226.41908919710238 295.67052446552054 226.41908919710238 296.97709515678537Q226.41908919710238 298.25526213737066 226.50430032914142 299.3630068538778Q226.6179151718601 300.470751570385 226.8167411466178 300.6695775451427L226.8167411466178 300.6695775451427Q227.21439309613316 301.66370741893115 228.71978976215578 302.9702781101961Q230.19678271749868 304.2484450907813 229.79913076798329 305.27097867524947ZM382.78151648869266 216.19694198380037L382.78151648869266 216.19694198380037Q381.3897346653888 217.78754978186194 381.67377177218555 219.49177242264224Q381.98621258966193 221.16759135274285 381.98621258966193 222.78660286148406L381.98621258966193 222.78660286148406Q381.98621258966193 224.37721065954568 381.47494579742784 224.7748626090611Q380.9920827158734 225.17251455857647 380.39560479160025 226.16664443236496L380.39560479160025 226.16664443236496L378.8049969935387 227.95607820518424Q377.18598548479747 232.15982738577557 375.7942036614936 234.2617019760713Q374.40242183818964 236.36357656636696 374.20359586343193 239.14714021297473L374.20359586343193 239.14714021297473Q373.0106400148858 239.14714021297473 373.0958511469248 239.94244411200552Q373.2094659896435 240.7377480110363 372.81181404012807 241.36262964598907L372.81181404012807 241.36262964598907Q372.41416209061276 241.7602815955045 371.50524334886325 241.9591075702622Q370.59632460711373 242.15793354501992 371.19280253138686 243.15206341880835L371.19280253138686 243.15206341880835Q369.6021947333252 243.54971536832377 367.01745706147517 245.73680109065847Q364.4043156789454 247.95229052367281 363.21135983039926 249.14524637221902L363.21135983039926 249.14524637221902Q359.8313182595183 248.9464203974613 358.0134807760194 251.33233209455372Q356.2240470032001 253.71824379164607 354.2357872556231 254.74077737611427L354.2357872556231 254.74077737611427Q353.63930933135 255.1384293256297 352.92921656435817 254.93960335087198Q352.21912379736636 254.74077737611427 351.62264587309335 255.1384293256297L351.62264587309335 255.1384293256297Q349.23673417600094 256.92786309844894 348.2426043022124 257.32551504796436Q347.24847442842395 257.7231669974798 346.6519965041508 258.7172968712682L346.6519965041508 258.7172968712682Q346.8508224789085 259.31377479554135 347.333685560463 259.62621561301773Q347.8449523526971 259.91025271981437 348.4414302769702 260.22269353729075Q349.0379082012432 260.53513435476714 349.43556015075865 260.93278630428256Q349.83321210027407 261.330438253798 349.63438612551636 262.1257421528288L349.63438612551636 262.1257421528288Q356.2240470032001 264.3128278751635 361.6207520323376 268.11892510623943L361.6207520323376 268.11892510623943Q361.22310008282227 270.50483680333184 362.61488190612613 271.4989666771203Q364.00666372943 272.4930965509087 364.8019676284607 272.89074850042414L364.8019676284607 272.89074850042414Q364.6031416537031 274.50976000916546 365.8245012129289 275.1062379334386Q367.01745706147517 275.7027158577116 367.812760960506 276.69684573150016L367.812760960506 276.69684573150016Q368.60806485953674 278.48627950431944 369.20454278380976 278.48627950431944Q369.8010207080829 278.48627950431944 370.1986726575983 278.88393145383475L370.1986726575983 278.88393145383475Q370.397498632356 280.10529101306065 371.50524334886325 281.58228396840354Q372.61298806537036 283.0876806344262 372.81181404012807 283.2865066091839L372.81181404012807 283.2865066091839Q373.2094659896435 284.28063648297234 373.0106400148858 285.18955522472186Q372.81181404012807 286.0984739664714 372.81181404012807 287.0926038402598L372.81181404012807 287.0926038402598Q372.81181404012807 289.0808635878368 374.00476988867433 290.78508622861705Q375.1977257372205 292.4893088693974 374.20359586343193 294.4775686169744L374.20359586343193 294.4775686169744Q374.60124781294735 295.2728725160051 375.1977257372205 295.47169849076283Q375.7942036614936 295.67052446552054 376.1918556110089 296.664654339309L376.1918556110089 296.664654339309Q376.58950756052434 298.05643616261295 376.5042964284853 299.3630068538778Q376.39068158576663 300.6695775451427 376.78833353528205 301.86253339368886L376.78833353528205 301.86253339368886Q377.18598548479747 303.2543152169927 377.69725227703157 303.85079314126585Q378.180115358586 304.447271065539 378.180115358586 306.2651085490379L378.180115358586 306.2651085490379Q378.180115358586 308.849846220888 376.9019483780007 310.838105968465Q375.5953776867359 312.85476942672165 374.20359586343193 314.84302917429864L374.20359586343193 314.84302917429864Q372.21533611585505 315.24068112381406 370.5111134750747 316.14959986556346Q368.80689083429445 317.03011489663334 368.2104129100213 319.2456043296477L368.2104129100213 319.2456043296477Q365.19961957797614 319.6432562791631 362.2172299566107 319.2456043296477L362.2172299566107 319.2456043296477Q361.6207520323376 317.8538225063438 360.82544813330685 317.143729739352Q360.030144234276 316.4336369723602 359.3200514672843 315.6383330733295Q358.6099587002925 314.84302917429864 358.12709561873805 313.9341104325491Q357.61582882650396 313.05359540147936 357.61582882650396 311.23575791798044L357.61582882650396 311.23575791798044Q357.61582882650396 310.0428020694342 356.9341397701918 308.9634610636067Q356.2240470032001 307.8557163470995 357.21817687698854 306.6627604985533L357.21817687698854 306.6627604985533Q356.8205249274731 306.2651085490379 356.7353137954342 305.6686306247649Q356.6216989527154 305.043748989812 355.62756907892697 305.27097867524947L355.62756907892697 305.27097867524947Q356.2240470032001 304.2484450907813 356.1104321604813 302.7714521354384Q356.0252210284424 301.26605546941573 354.63343920513853 300.6695775451427L354.63343920513853 300.6695775451427Q354.63343920513853 299.67544767135416 355.11630228669287 299.27779572183874Q355.62756907892697 298.88014377232344 355.62756907892697 298.45408811212826L355.62756907892697 298.45408811212826Q355.62756907892697 297.2611322635821 354.63343920513853 296.4658283645514Q353.63930933135 295.67052446552054 354.63343920513853 294.079916667459L354.63343920513853 294.079916667459Q353.44048335659227 293.0857867936704 352.92921656435817 291.4667752849292Q352.4179497721241 289.87616748686764 351.2249939235779 288.8820376130791L351.2249939235779 288.8820376130791Q351.82147184785106 286.6949518907444 351.3386087662966 284.8771144072455Q350.8273419740625 283.0876806344262 348.0437783274548 282.8888546596685L348.0437783274548 282.8888546596685Q346.6519965041508 280.7017689373338 345.6294629196826 280.1905021450997Q344.6353330458942 279.70763906354534 343.64120317210563 279.28158340335017L343.64120317210563 279.28158340335017Q343.84002914686334 278.48627950431944 343.5559920400667 278.2022423975227Q343.2435512225903 277.8898015800463 342.73228443035623 277.60576447324956Q342.2494213488018 277.2933236557732 341.9369805313254 276.8956717062579Q341.65294342452876 276.49801975674245 341.65294342452876 275.9015418324693L341.65294342452876 275.9015418324693Q339.2386280167566 276.10036780722703 338.75576493520225 275.1062379334386Q338.24449814296815 274.11210805965004 336.6538903449066 272.89074850042414L336.6538903449066 272.89074850042414Q335.65976047111803 273.08957447518185 334.94966770412634 272.8055373683851Q334.2679786478142 272.4930965509087 333.7567118555801 272.2090594441121Q333.245445063346 271.8966186266357 332.64896713907297 271.697792651878Q332.05248921479983 271.4989666771203 331.0583593410113 271.4989666771203L331.0583593410113 271.4989666771203Q330.8595333662536 270.90248875284715 330.3482665740196 270.6184516460505Q329.86540349246513 270.30601082857413 329.4677515429497 269.9083588790587L329.4677515429497 269.9083588790587Q328.07596971964585 269.9083588790587 326.1729211041079 269.3970920868246Q324.26987248856983 268.91422900527016 323.0769166400237 269.9083588790587L323.0769166400237 269.9083588790587Q322.48043871575067 269.709532904301 322.08278676623524 269.1982661120669Q321.6851348167198 268.71540303051256 321.2874828672044 268.31775108099714Q320.86142720700934 267.9200991314817 320.3785641254549 267.721273156724Q319.8672973332209 267.5224471819663 319.07199343419006 268.11892510623943L319.07199343419006 268.11892510623943Q318.0778635604015 266.4999135974981 317.1689448186521 265.9034356732251Q316.28842978758223 265.30695774895196 314.8966479642784 267.3236212072086L314.8966479642784 267.3236212072086Q314.2717663293256 266.4999135974981 313.19242532349807 266.4147024654591Q312.0846806069909 266.3010876227405 310.89172475844475 266.4999135974981Q309.69876890989855 266.6987395722558 308.50581306135234 266.8123544149745Q307.28445350212644 266.92596925769317 306.48914960309565 266.4999135974981L306.48914960309565 266.4999135974981Q305.49501972930716 266.92596925769317 304.6997158302764 267.1247952324509Q303.9044119312456 267.3236212072086 302.9102820574571 267.721273156724L302.9102820574571 267.721273156724Q301.0924445739582 267.5224471819663 298.19526608463167 267.4088323392476Q295.2980875953052 267.3236212072086 292.31569797393973 267.5224471819663Q289.33330835257425 267.721273156724 286.63495583800545 268.20413623827847Q283.93660332343666 268.71540303051256 282.51641778945316 269.709532904301L282.51641778945316 269.709532904301Q282.31759181469545 273.08957447518185 282.7436474748905 275.58910101499293Q283.14129942440593 278.088627554804 284.5330812477098 281.2982468616069L284.5330812477098 281.2982468616069Q283.93660332343666 285.2747663567609 284.3342552729521 285.8712442810339Q284.7319072224675 286.4961259159867 285.92486307101365 288.28555968880596L285.92486307101365 288.28555968880596Q285.5272111214983 291.4667752849292 285.6124222535373 293.9663018247403Q285.726037096256 296.4658283645514 286.9189929448022 299.47662169659645L286.9189929448022 299.47662169659645Q286.9189929448022 300.470751570385 287.5154708690753 300.6695775451427Q288.11194879334835 300.8684035199004 288.50960074286377 301.26605546941573L288.50960074286377 301.26605546941573Q288.9072526923792 301.66370741893115 289.02086753509786 302.2601853432043Q289.13448237781654 302.8566632674773 289.53213432733196 303.45314119175043L289.53213432733196 303.45314119175043Q286.7201669700445 305.043748989812 285.92486307101365 307.5432755296231Q285.1295591719829 310.0428020694342 283.34012539916364 312.2582915024485L283.34012539916364 312.2582915024485Q280.92580999139153 312.0594655276909 279.22158735061123 313.25242137623707Q277.5457684205106 314.4453772247832 275.529104962254 314.4453772247832L275.529104962254 314.4453772247832Q274.53497508846556 314.4453772247832 273.7396711894347 313.8488993005101Q272.944367290404 313.25242137623707 271.7514114418577 313.05359540147936L271.7514114418577 313.05359540147936Q271.1549335175846 311.6618135781755 270.4448407505928 310.4404540189496Q269.7347479836011 309.24749817040345 268.1441401855394 308.849846220888L268.1441401855394 308.849846220888Q267.7464882360241 306.0662825742802 266.6387435195169 305.5550157820461Q265.5594025136894 305.043748989812 264.7640986146586 304.04961911602356L264.7640986146586 304.04961911602356Q264.9629245894163 303.2543152169927 264.5652726399009 302.8566632674773Q264.16762069038555 302.459011317962 264.16762069038555 301.86253339368886L264.16762069038555 301.86253339368886Q264.16762069038555 300.8684035199004 264.4516577971822 300.55596270242404Q264.7640986146586 300.2719255956273 265.246961696213 300.0730996208696Q265.7582284884471 299.8742736461119 266.04226559524386 299.67544767135416Q266.3547064127202 299.47662169659645 266.3547064127202 298.45408811212826L266.3547064127202 298.45408811212826Q266.3547064127202 297.65878421309753 266.04226559524386 297.0623062888244Q265.7582284884471 296.4658283645514 265.7582284884471 295.86935044027825L265.7582284884471 295.86935044027825Q265.7582284884471 295.0740465412474 266.24109157000146 294.761605723771Q266.75235836223555 294.4775686169744 265.161750564174 293.68226471794355L265.161750564174 293.68226471794355Q265.161750564174 292.8869608189128 265.44578767097073 292.26207918395994Q265.7582284884471 291.6656012596869 265.7582284884471 290.8702973606561L265.7582284884471 290.8702973606561Q265.7582284884471 289.2796895625945 265.44578767097073 287.88790773929065Q265.161750564174 286.4961259159867 264.7640986146586 285.0759403820032L264.7640986146586 285.0759403820032Q264.3664466651432 283.8829845334569 263.45752792339374 283.6841585586992Q262.5486091816442 283.4853325839416 262.1509572321288 282.49120271015306L262.1509572321288 282.49120271015306Q263.5711427661124 280.30411698781836 263.25870194863603 276.6116345994611Q262.94626113115964 272.89074850042414 262.1509572321288 270.70366277808955L262.1509572321288 270.70366277808955Q261.9521312573712 269.9083588790587 261.15682735834037 270.0219737217774Q260.3615234593095 270.1071848538164 260.1626974845519 269.5107069295433L260.1626974845519 269.5107069295433Q260.56034943406723 268.51657705575485 260.95800138358265 267.2100063644899Q261.3556533330981 265.9034356732251 262.74743515640193 265.50578372370967L262.74743515640193 265.50578372370967Q262.3497832068865 264.5116538499211 262.4633980496052 263.5175239761327Q262.5486091816442 262.5233941023441 263.14508710591736 261.7280902033134L263.14508710591736 261.7280902033134Q262.74743515640193 260.93278630428256 262.4633980496052 260.1090786945721Q262.1509572321288 259.31377479554135 261.15682735834037 259.11494882078364L261.15682735834037 259.11494882078364Q262.1509572321288 258.1208189469951 261.5544793078558 257.32551504796436Q260.95800138358265 256.5302111489335 260.75917540882494 255.53608127514505L260.75917540882494 255.53608127514505Q262.5486091816442 252.72411391785758 262.1509572321288 250.13937624600752Q261.75330528261344 247.52623486347775 261.75330528261344 244.74267121686998L261.75330528261344 244.74267121686998Q261.75330528261344 243.9473673178392 262.26457207484754 243.35088939356606Q262.74743515640193 242.754411469293 262.74743515640193 241.9591075702622L262.74743515640193 241.9591075702622Q262.74743515640193 240.936573985794 262.4633980496052 240.14127008676323Q262.1509572321288 239.34596618773244 262.1509572321288 238.35183631394395L262.1509572321288 238.35183631394395Q262.1509572321288 237.55653241491316 262.5486091816442 236.96005449064003Q262.94626113115964 236.36357656636696 263.14508710591736 235.76709864209388L263.14508710591736 235.76709864209388Q262.74743515640193 234.7445650576257 262.94626113115964 234.34691310811027Q263.14508710591736 233.9492611585949 263.14508710591736 233.5516092090795L263.14508710591736 233.5516092090795Q263.14508710591736 232.35865336053328 262.1509572321288 230.17156763819864Q261.15682735834037 227.95607820518424 262.1509572321288 226.96194833139575L262.1509572321288 226.96194833139575Q260.75917540882494 223.97955871003026 260.95800138358265 222.0765100944923Q261.15682735834037 220.17346147895435 261.15682735834037 218.18520173137736Q261.15682735834037 216.19694198380037 260.6739642767859 214.5779304750591Q260.1626974845519 212.98732267699748 258.77091566124795 211.99319280320898L258.77091566124795 211.99319280320898Q258.77091566124795 208.98239947116386 258.25964886901386 206.11362469251705Q257.7767857874595 203.2164462031906 257.7767857874595 200.20565287114547L257.7767857874595 200.20565287114547Q257.1803078631864 198.61504507308385 257.6631709447408 198.30260425560746Q258.1744377369749 198.01856714881077 258.1744377369749 197.62091519929535L258.1744377369749 197.62091519929535Q258.1744377369749 196.3995556400695 257.3791338379441 195.32021463424198Q256.5554262282336 194.2124699177348 256.5554262282336 192.8206880944309L256.5554262282336 192.8206880944309Q256.5554262282336 192.22421017015782 256.86786704571 191.62773224588474Q257.1803078631864 191.0312543216116 257.1803078631864 190.23595042258083L257.1803078631864 190.23595042258083Q257.1803078631864 189.61106878762806 256.5554262282336 188.81576488859727Q255.9589483039605 188.0204609895665 257.1803078631864 187.62280904005107L257.1803078631864 187.62280904005107Q256.5554262282336 186.62867916626257 256.3566002534759 185.7197604245131Q256.1577742787182 184.8392453934433 255.76012232920277 183.8451155196548L255.76012232920277 183.8451155196548Q257.1803078631864 180.63549621285193 259.1685676107634 178.33479564779856Q261.15682735834037 176.03409508274524 261.15682735834037 172.0575755875912L261.15682735834037 172.0575755875912Q262.5486091816442 171.85874961283355 263.85517987290916 171.54630879535716Q265.161750564174 171.26227168856042 266.75235836223555 171.26227168856042L266.75235836223555 171.26227168856042Q269.96197766903845 171.85874961283355 271.83662257389676 171.54630879535716Q273.7396711894347 171.26227168856042 275.3302789874963 172.45522753710662L275.3302789874963 172.45522753710662Q278.5398982942992 171.26227168856042 281.834728733141 170.94983087108403Q285.1295591719829 170.63739005360765 288.50960074286377 170.55217892156867Q291.9180460244243 170.43856407884994 295.2128764632662 170.35335294681096Q298.5077069021081 170.23973810409228 301.9161521836686 169.4444342050615L301.9161521836686 169.4444342050615Q302.9102820574571 170.04091212933457 303.7055859564879 170.43856407884994Q304.5008898555187 170.83621602836536 305.49501972930716 171.26227168856042L305.49501972930716 171.26227168856042Q306.48914960309565 171.26227168856042 307.19924237008746 170.75100489632638Q307.88093142639957 170.23973810409228 308.90346501086776 169.84208615457686L308.90346501086776 169.84208615457686Q311.09055073320246 170.23973810409228 313.19242532349807 170.04091212933457Q315.2942999137938 169.84208615457686 317.4813856361285 169.84208615457686L317.4813856361285 169.84208615457686Q319.07199343419006 169.84208615457686 320.66260123225163 170.35335294681096Q322.28161274099284 170.83621602836536 323.8722205390545 170.83621602836536L323.8722205390545 170.83621602836536Q325.8604802866315 172.0575755875912 326.0593062613891 171.46109766331813Q326.25813223614693 170.83621602836536 327.4794917953727 170.83621602836536L327.4794917953727 170.83621602836536Q328.4736216691613 170.83621602836536 330.26305544198055 171.26227168856042Q332.05248921479983 171.65992363807584 332.45014116431526 170.43856407884994L332.45014116431526 170.43856407884994Q334.4668046225719 171.06344571380276 336.4550643701489 171.14865684584174Q338.44332411772587 171.26227168856042 340.6588135507402 171.65992363807584L340.6588135507402 171.65992363807584Q342.2494213488018 172.0575755875912 342.6470732983172 172.73926464390337Q343.0447252478326 173.44935741089512 344.03885512162105 173.84700936041054L344.03885512162105 173.84700936041054Q346.22594084395575 173.64818338565283 347.13485958570527 174.5571021274023Q348.0437783274548 175.4376171584721 349.63438612551636 175.63644313322982L349.63438612551636 175.63644313322982Q349.43556015075865 176.6305730070183 350.2308640497895 176.6305730070183Q351.0261679488202 176.6305730070183 350.6285159993048 177.6531065914865L350.6285159993048 177.6531065914865Q353.8381353061077 178.64723646527494 355.62756907892697 180.23784426333657L355.62756907892697 180.23784426333657Q357.0193509022308 180.43667023809428 358.7235735430112 180.7491110555706Q360.42779618379143 181.03314816236735 361.6207520323376 181.62962608664043L361.6207520323376 181.62962608664043Q362.4160559313684 182.02727803615585 362.81370788088384 182.53854482838994Q363.21135983039926 183.02140790994434 363.60901177991457 183.4190598594597L363.60901177991457 183.4190598594597Q364.2054897041877 183.61788583421745 365.00079360321854 183.73150067693612Q365.8245012129289 183.8451155196548 366.22215316244433 184.24276746917022L366.22215316244433 184.24276746917022Q366.61980511195975 184.44159344392787 366.7050162439988 185.038071368201Q366.81863108671746 185.63454929247408 367.2162830362329 186.0322012419895L367.2162830362329 186.0322012419895Q368.0115869352637 186.82750514102028 368.80689083429445 187.13994595849667Q369.6021947333252 187.42398306529336 369.20454278380976 189.01459086335498L369.20454278380976 189.01459086335498L371.7892804556599 189.01459086335498Q371.59045448090217 190.00872073714348 372.10172127313626 190.51998752937752Q372.61298806537036 191.0312543216116 372.21533611585505 192.0253841954001L372.21533611585505 192.0253841954001Q372.61298806537036 193.0195140691886 373.4082919644012 193.61599199346173Q374.20359586343193 194.2124699177348 374.80007378770506 195.0077738167656L374.80007378770506 195.0077738167656Q375.1977257372205 196.0019036905541 375.1977257372205 197.02443727502228Q375.1977257372205 198.01856714881077 376.78833353528205 198.01856714881077L376.78833353528205 198.01856714881077L376.78833353528205 200.60330482066084Q377.7824634090706 202.1939126187224 379.79912686732723 203.2164462031906L379.79912686732723 203.2164462031906Q379.6003008925695 205.4035319255253 380.2819899488816 206.39766179931374Q380.9920827158734 207.3917916731023 382.38386453917724 208.78357349640615L382.38386453917724 208.78357349640615Q382.18503856441964 210.80023695466278 382.18503856441964 212.58967072748212Q382.18503856441964 214.3791045003014 382.78151648869266 216.19694198380037ZM362.4160559313684 212.58967072748212L362.4160559313684 212.58967072748212Q360.62662215854914 209.80610708087434 360.42779618379143 206.99413972358687L360.42779618379143 206.99413972358687Q359.2064366245655 206.59648777407145 358.6099587002925 205.80118387504066Q358.0134807760194 205.00587997600988 357.21817687698854 204.01175010222138L357.21817687698854 204.01175010222138Q357.0193509022308 203.0176202284329 356.5364878206765 202.10870148668343Q356.0252210284424 201.1997827449339 355.8263950536847 200.20565287114547L355.8263950536847 200.20565287114547Q352.02029782260865 199.01269702259927 350.03203807503166 196.0019036905541L350.03203807503166 196.0019036905541Q348.2426043022124 196.0019036905541 347.5325115352207 195.2065997915233Q346.8508224789085 194.41129589249252 345.430636944925 193.41716601870402L345.430636944925 193.41716601870402Q344.4365070711365 193.41716601870402 343.64120317210563 193.0195140691886Q342.8458992730749 192.62186211967324 341.85176939928635 192.62186211967324L341.85176939928635 192.62186211967324Q338.6421500924836 191.23008029636932 336.7391014769456 189.80989476238577Q334.8644565720873 188.41811293908185 332.64896713907297 188.0204609895665L332.64896713907297 188.0204609895665Q330.660707391496 187.62280904005107 328.7576587759579 187.73642388276974Q326.85461016041995 187.82163501480878 324.86635041284296 187.42398306529336L324.86635041284296 187.42398306529336Q323.8722205390545 187.2251570905357 322.963301797305 186.94111998373896Q322.08278676623524 186.62867916626257 321.0886568924467 186.62867916626257L321.0886568924467 186.62867916626257Q318.67434148467464 187.026331115778 318.47551550991693 186.5150643235439Q318.2766895351592 186.0322012419895 317.8790375856438 186.0322012419895L317.8790375856438 186.0322012419895Q316.28842978758223 187.026331115778 314.584207146802 186.82750514102028Q312.87998450602174 186.62867916626257 311.2893767079602 186.62867916626257L311.2893767079602 186.62867916626257Q310.2952468341716 186.62867916626257 309.18750211766445 187.026331115778Q308.0797574011573 187.42398306529336 307.0856275273688 187.42398306529336L307.0856275273688 187.42398306529336Q306.0914976535803 187.42398306529336 305.29619375454945 187.2251570905357Q304.5008898555187 187.026331115778 303.50675998173017 187.026331115778L303.50675998173017 187.026331115778Q302.51263010794173 187.026331115778 301.8025373409499 187.2251570905357Q301.0924445739582 187.42398306529336 300.2971406749274 187.42398306529336L300.2971406749274 187.42398306529336Q299.70066275065426 187.42398306529336 299.10418482638113 187.2251570905357Q298.5077069021081 187.026331115778 297.71240300307727 187.026331115778L297.71240300307727 187.026331115778Q296.1217952050157 187.026331115778 294.6163985389931 187.5375979080121Q293.1110018729705 188.0204609895665 291.52039407490895 188.0204609895665L291.52039407490895 188.0204609895665Q290.12861225160503 187.42398306529336 289.53213432733196 188.0204609895665L289.53213432733196 188.0204609895665Q287.9131228185907 187.82163501480878 286.7201669700445 187.93524985752745Q285.5272111214983 188.0204609895665 283.93660332343666 188.41811293908185L283.93660332343666 188.41811293908185Q282.51641778945316 188.0204609895665 281.3234619409069 187.82163501480878Q280.13050609236075 187.62280904005107 278.7387242690569 187.42398306529336L278.7387242690569 187.42398306529336Q277.34694244575303 188.2192869643242 277.14811647099526 188.92937973131595Q276.9492904962376 189.61106878762806 274.7338010632232 189.2134168381127L274.7338010632232 189.2134168381127Q275.1314530127386 190.8324283468539 275.44389383021496 192.62186211967324Q275.7279309370117 194.41129589249252 276.7504645214799 196.0019036905541L276.7504645214799 196.0019036905541Q276.1255828865271 197.62091519929535 275.44389383021496 198.21739312356843Q274.7338010632232 198.81387104784156 274.7338010632232 199.80800092163005L274.7338010632232 199.80800092163005Q274.7338010632232 200.20565287114547 275.64271980497267 201.31339758765264Q276.5516385467222 202.39273859348012 276.7504645214799 203.2164462031906L276.7504645214799 203.2164462031906Q275.7279309370117 206.00000984979837 276.1255828865271 208.78357349640615Q276.5516385467222 211.59554085369362 278.7387242690569 213.78262657602832L278.7387242690569 213.78262657602832Q278.34107231954147 214.3791045003014 278.4262834515805 215.17440839933218Q278.5398982942992 215.99811600904266 278.82393540109587 216.67980506535477Q279.1363762185723 217.38989783234652 279.33520219332996 218.27041286341634Q279.5340281680876 219.17933160516586 279.33520219332996 220.17346147895435L279.33520219332996 220.17346147895435Q280.92580999139153 222.19012493721098 281.7211138904223 223.5819067605149Q282.51641778945316 224.97368858381876 281.3234619409069 227.75725223042653L281.3234619409069 227.75725223042653Q281.52228791566466 228.580959840137 282.31759181469545 228.77978581489472Q283.14129942440593 228.97861178965243 282.9424734496482 229.97274166344093L282.9424734496482 229.97274166344093Q281.52228791566466 230.3703936129563 281.52228791566466 232.557479335291L281.52228791566466 232.557479335291Q281.52228791566466 233.5516092090795 281.7211138904223 234.65935392558666Q281.91993986518 235.76709864209388 281.91993986518 236.76122851588232L281.91993986518 236.76122851588232Q281.91993986518 238.7494882634593 281.3234619409069 241.0501888285127Q280.7269840166339 243.35088939356606 281.3234619409069 245.14032316638534L281.3234619409069 245.14032316638534Q280.92580999139153 245.93562706541618 280.32933206711846 246.33327901493155Q279.7328541428453 246.73093096444697 279.7328541428453 247.7534645489151L279.7328541428453 247.7534645489151Q280.32933206711846 248.15111649843053 280.52815804187617 248.83280555474263Q280.7269840166339 249.54289832173438 281.3234619409069 249.9405502712498L281.3234619409069 249.9405502712498Q282.9424734496482 249.54289832173438 284.2206404302334 249.7417242964921Q285.5272111214983 249.9405502712498 286.9189929448022 249.9405502712498L286.9189929448022 249.9405502712498Q286.12368904577136 250.33820222076523 286.63495583800545 250.9346801450383Q287.1178189195599 251.53115806931137 287.5154708690753 251.9288100188268L287.5154708690753 251.9288100188268Q291.12274212539353 252.32646196834222 294.7016096710321 251.53115806931137Q298.30888092735034 250.7358541702806 301.9161521836686 250.7358541702806L301.9161521836686 250.7358541702806Q303.7055859564879 250.7358541702806 305.49501972930716 251.133506119796Q307.28445350212644 251.53115806931137 309.1022909856254 251.53115806931137L309.1022909856254 251.53115806931137Q310.09642085941397 251.53115806931137 310.89172475844475 251.133506119796Q311.6870286574755 250.7358541702806 312.68115853126403 250.7358541702806L312.68115853126403 250.7358541702806Q315.4931258885514 251.133506119796 316.7712928691367 250.7358541702806Q318.0778635604015 250.33820222076523 319.2708194089478 251.133506119796L319.2708194089478 251.133506119796Q321.4863088419621 250.13937624600752 323.4745685895391 249.230457504258Q325.4628283371161 248.34994247318824 328.07596971964585 248.9464203974613L328.07596971964585 248.9464203974613Q330.06422946722284 248.34994247318824 331.6548372652844 247.242197756681Q333.245445063346 246.1344530401739 335.65976047111803 246.92975693920468L335.65976047111803 246.92975693920468Q336.25623839539116 246.33327901493155 336.5402755021879 245.73680109065847Q336.8527163196643 245.14032316638534 337.84684619345273 244.74267121686998L337.84684619345273 244.74267121686998Q338.44332411772587 245.14032316638534 338.75576493520225 244.54384524211227Q339.039802041999 243.9473673178392 339.8351059410297 244.34501926735456L339.8351059410297 244.34501926735456Q340.8576395254979 243.35088939356606 341.9369805313254 242.55558549453528Q343.0447252478326 241.7602815955045 343.84002914686334 240.5389220362786L343.84002914686334 240.5389220362786Q345.2318109701673 240.34009606152094 346.73720763618985 239.34596618773244Q348.2426043022124 238.35183631394395 349.5207712827977 237.35770644015545Q350.8273419740625 236.36357656636696 352.21912379736636 235.56827266733617Q353.63930933135 234.7445650576257 355.22991712941166 234.54573908286798L355.22991712941166 234.54573908286798Q355.8263950536847 232.7563053100487 357.3317917197072 231.67696430422117Q358.8087846750502 230.569219587714 359.8313182595183 228.97861178965243L359.8313182595183 228.97861178965243Q359.6324922847607 227.95607820518424 360.11535536631504 227.35960028091117Q360.62662215854914 226.7631223566381 360.42779618379143 225.76899248284954L360.42779618379143 225.76899248284954Q361.6207520323376 224.97368858381876 362.4160559313684 224.7748626090611L362.4160559313684 224.7748626090611Q362.2172299566107 223.3830807857572 362.9273227236025 222.98542883624177Q363.60901177991457 222.5877768867264 363.41018580515697 221.3664173275005L363.41018580515697 221.3664173275005Q365.00079360321854 219.3781575799235 364.8019676284607 218.18520173137736Q364.6031416537031 216.99224588283116 364.6031416537031 215.79929003428495L364.6031416537031 215.79929003428495Q364.6031416537031 213.1861486517552 362.4160559313684 212.58967072748212Z " fill=" oklch(0.75 0.12 75)" transform="matrix(2.2499999313354513,0,0,2.2499999313354517,0,-249.99999084472722)"/><path d="MNaN 244.44444105360233 " fill="#oklch(0.75 0.12 75)" transform="matrix(2.2499999313354513,0,0,2.2499999313354517,0,-249.99999084472722)"/></g></svg>